<svg width="25" height="24" viewBox="0 0 25 24" fill="none" xmlns="http://www.w3.org/2000/svg">
<path fill-rule="evenodd" clip-rule="evenodd" d="M7.22896 8.34749L7.83196 15.5195C7.87596 16.0715 8.32696 16.4855 8.87796 16.4855H8.88196H19.793H19.795C20.316 16.4855 20.761 16.0975 20.835 15.5825L21.785 9.02349C21.807 8.86749 21.768 8.71149 21.673 8.58549C21.579 8.45849 21.441 8.37649 21.285 8.35449C21.076 8.36249 12.403 8.35049 7.22896 8.34749ZM8.87596 17.9855C7.55896 17.9855 6.44396 16.9575 6.33696 15.6425L5.42096 4.74849L3.91396 4.48849C3.50496 4.41649 3.23196 4.02949 3.30196 3.62049C3.37396 3.21149 3.76896 2.94549 4.16896 3.00949L6.24896 3.36949C6.58396 3.42849 6.83896 3.70649 6.86796 4.04649L7.10296 6.84749C21.379 6.85349 21.425 6.86049 21.494 6.86849C22.051 6.94949 22.541 7.24049 22.875 7.68849C23.209 8.13549 23.349 8.68649 23.269 9.23849L22.32 15.7965C22.141 17.0445 21.057 17.9855 19.797 17.9855H19.792H8.88396H8.87596Z" fill="#A4ACB6"/>
<path fill-rule="evenodd" clip-rule="evenodd" d="M18.188 12.0439H15.416C15.001 12.0439 14.666 11.7079 14.666 11.2939C14.666 10.8799 15.001 10.5439 15.416 10.5439H18.188C18.602 10.5439 18.938 10.8799 18.938 11.2939C18.938 11.7079 18.602 12.0439 18.188 12.0439Z" fill="#A4ACB6"/>
<path fill-rule="evenodd" clip-rule="evenodd" d="M8.44539 20.7021C8.74639 20.7021 8.98939 20.9451 8.98939 21.2461C8.98939 21.5471 8.74639 21.7911 8.44539 21.7911C8.14339 21.7911 7.90039 21.5471 7.90039 21.2461C7.90039 20.9451 8.14339 20.7021 8.44539 20.7021Z" fill="#A4ACB6"/>
<mask id="mask0_6751_3682" style="mask-type:luminance" maskUnits="userSpaceOnUse" x="7" y="20" width="2" height="2">
<path fill-rule="evenodd" clip-rule="evenodd" d="M7.90039 21.2457C7.90039 21.5477 8.14339 21.7917 8.44639 21.7917C8.74739 21.7917 8.99039 21.5477 8.99039 21.2457C8.99039 20.9447 8.74739 20.7017 8.44639 20.7017C8.14339 20.7017 7.90039 20.9447 7.90039 21.2457Z" fill="white"/>
</mask>
<g mask="url(#mask0_6751_3682)">
<path fill-rule="evenodd" clip-rule="evenodd" d="M2.90234 26.7907H13.9913V15.7017H2.90234V26.7907Z" fill="#A4ACB6"/>
</g>
<path fill-rule="evenodd" clip-rule="evenodd" d="M8.44439 21.0407C8.33139 21.0407 8.23939 21.1327 8.23939 21.2457C8.23939 21.4727 8.65039 21.4727 8.65039 21.2457C8.65039 21.1327 8.55739 21.0407 8.44439 21.0407ZM8.44439 22.5407C7.73039 22.5407 7.15039 21.9597 7.15039 21.2457C7.15039 20.5317 7.73039 19.9517 8.44439 19.9517C9.15839 19.9517 9.73939 20.5317 9.73939 21.2457C9.73939 21.9597 9.15839 22.5407 8.44439 22.5407Z" fill="#A4ACB6"/>
<path fill-rule="evenodd" clip-rule="evenodd" d="M19.7266 20.7017C20.0276 20.7017 20.2716 20.9447 20.2716 21.2457C20.2716 21.5467 20.0276 21.7907 19.7266 21.7907C19.4246 21.7907 19.1816 21.5467 19.1816 21.2457C19.1816 20.9447 19.4246 20.7017 19.7266 20.7017Z" fill="#A4ACB6"/>
<mask id="mask1_6751_3682" style="mask-type:luminance" maskUnits="userSpaceOnUse" x="19" y="20" width="2" height="2">
<path fill-rule="evenodd" clip-rule="evenodd" d="M19.1816 21.2457C19.1816 21.5477 19.4246 21.7917 19.7266 21.7917C20.0266 21.7917 20.2716 21.5477 20.2716 21.2457C20.2716 20.9447 20.0266 20.7017 19.7266 20.7017C19.4246 20.7017 19.1816 20.9447 19.1816 21.2457Z" fill="white"/>
</mask>
<g mask="url(#mask1_6751_3682)">
<path fill-rule="evenodd" clip-rule="evenodd" d="M14.1816 26.7907H25.2716V15.7017H14.1816V26.7907Z" fill="#A4ACB6"/>
</g>
<path fill-rule="evenodd" clip-rule="evenodd" d="M19.7256 21.0407C19.6136 21.0407 19.5216 21.1327 19.5216 21.2457C19.5226 21.4747 19.9326 21.4727 19.9316 21.2457C19.9316 21.1327 19.8386 21.0407 19.7256 21.0407ZM19.7256 22.5407C19.0116 22.5407 18.4316 21.9597 18.4316 21.2457C18.4316 20.5317 19.0116 19.9517 19.7256 19.9517C20.4406 19.9517 21.0216 20.5317 21.0216 21.2457C21.0216 21.9597 20.4406 22.5407 19.7256 22.5407Z" fill="#A4ACB6"/>
</svg>
