<svg width="14" height="14" viewBox="0 0 14 14" fill="none" xmlns="http://www.w3.org/2000/svg">
<path fill-rule="evenodd" clip-rule="evenodd" d="M4.19574 2.81849C4.43022 2.39235 4.68529 2.10748 5.06378 1.95683C5.75737 1.68105 8.24143 1.68105 8.93447 1.95689C9.31276 2.10746 9.56793 2.39228 9.80259 2.81833L10.0664 3.32417C10.0724 3.33419 10.078 3.343 10.0829 3.35059L10.1053 3.38122C10.2255 3.51218 10.4267 3.59129 10.5594 3.59129C11.8148 3.59129 12.8327 4.60897 12.8327 5.86396V9.24437C12.8327 10.8452 11.5343 12.1435 9.93352 12.1435H4.06518C2.46399 12.1435 1.16602 10.8454 1.16602 9.24437V5.86396C1.16602 4.60897 2.18392 3.59129 3.43927 3.59129C3.57155 3.59129 3.77298 3.51206 3.89336 3.38122C3.89576 3.3786 3.8989 3.3747 3.90269 3.36953L3.93269 3.32351L4.19574 2.81849ZM9.03615 3.24046C8.89034 2.97573 8.75856 2.82864 8.61089 2.76986L8.54128 2.74672C7.94095 2.57704 5.85276 2.58475 5.38722 2.76986C5.23963 2.82861 5.108 2.97561 4.96236 3.2403L4.73786 3.67436L4.6826 3.77436C4.63647 3.85108 4.59034 3.91585 4.53765 3.97325C4.24222 4.29438 3.80516 4.46629 3.43927 4.46629L3.34354 4.46952C2.61604 4.51871 2.04102 5.12442 2.04102 5.86396V9.24438C2.04102 10.3621 2.94727 11.2685 4.06518 11.2685H9.93352C11.0511 11.2685 11.9577 10.3619 11.9577 9.24438V5.86396C11.9577 5.09226 11.3316 4.46629 10.5594 4.46629L10.4579 4.46205C10.1146 4.4338 9.72893 4.26514 9.46069 3.97287C9.4087 3.91622 9.36281 3.85192 9.31696 3.77584C9.31038 3.76493 9.3022 3.75056 9.29281 3.73356L9.22509 3.60654L9.03615 3.24046Z" fill="#DFE5ED"/>
<path d="M10.2097 4.95801C10.5318 4.95801 10.793 5.21918 10.793 5.54134C10.793 5.8405 10.5678 6.08705 10.2777 6.12075L10.2097 6.12467C9.88226 6.12467 9.62109 5.86351 9.62109 5.54134C9.62109 5.24219 9.84628 4.99563 10.1364 4.96193L10.2097 4.95801Z" fill="#DFE5ED"/>
<path fill-rule="evenodd" clip-rule="evenodd" d="M4.70703 7.65813C4.70703 6.39217 5.73299 5.36621 6.99895 5.36621C8.26491 5.36621 9.29086 6.39217 9.29086 7.65813C9.29086 8.92408 8.26491 9.95004 6.99895 9.95004C5.73299 9.95004 4.70703 8.92408 4.70703 7.65813ZM8.41586 7.65813C8.41586 6.87542 7.78166 6.24121 6.99895 6.24121C6.21624 6.24121 5.58203 6.87542 5.58203 7.65813C5.58203 8.44084 6.21624 9.07504 6.99895 9.07504C7.78166 9.07504 8.41586 8.44084 8.41586 7.65813Z" fill="#DFE5ED"/>
</svg>
