<svg width="25" height="25" viewBox="0 0 25 25" fill="none" xmlns="http://www.w3.org/2000/svg">
<path fill-rule="evenodd" clip-rule="evenodd" d="M6.55078 4C3.80078 4 3.80078 4.208 3.80078 6.75V6.775C3.80078 7.882 3.80078 8.682 4.07178 9.02C4.33678 9.348 5.12378 9.5 6.55078 9.5C7.97778 9.5 8.76478 9.347 9.02978 9.019C9.30078 8.682 9.30078 7.882 9.30078 6.774C9.30078 4.208 9.30078 4 6.55078 4ZM6.55078 11C4.86478 11 3.59978 10.823 2.90478 9.96C2.30078 9.211 2.30078 8.189 2.30078 6.775L3.05078 6.75H2.30078C2.30078 3.88 2.48178 2.5 6.55078 2.5C10.6198 2.5 10.8008 3.88 10.8008 6.75C10.8008 8.188 10.8008 9.211 10.1968 9.96C9.50178 10.823 8.23678 11 6.55078 11Z" fill="#A4ACB6"/>
<path fill-rule="evenodd" clip-rule="evenodd" d="M17.5508 4C14.8008 4 14.8008 4.208 14.8008 6.75V6.775C14.8008 7.882 14.8008 8.682 15.0718 9.02C15.3368 9.348 16.1238 9.5 17.5508 9.5C18.9778 9.5 19.7648 9.347 20.0298 9.019C20.3008 8.682 20.3008 7.882 20.3008 6.774C20.3008 4.208 20.3008 4 17.5508 4ZM17.5508 11C15.8648 11 14.5998 10.823 13.9048 9.96C13.3008 9.211 13.3008 8.189 13.3008 6.775L14.0508 6.75H13.3008C13.3008 3.88 13.4818 2.5 17.5508 2.5C21.6198 2.5 21.8008 3.88 21.8008 6.75C21.8008 8.188 21.8008 9.211 21.1968 9.96C20.5018 10.823 19.2368 11 17.5508 11Z" fill="#A4ACB6"/>
<path fill-rule="evenodd" clip-rule="evenodd" d="M6.55078 15C3.80078 15 3.80078 15.208 3.80078 17.75V17.775C3.80078 18.882 3.80078 19.682 4.07178 20.02C4.33678 20.348 5.12378 20.5 6.55078 20.5C7.97778 20.5 8.76478 20.347 9.02978 20.019C9.30078 19.682 9.30078 18.882 9.30078 17.774C9.30078 15.208 9.30078 15 6.55078 15ZM6.55078 22C4.86478 22 3.59978 21.823 2.90478 20.96C2.30078 20.211 2.30078 19.189 2.30078 17.775L3.05078 17.75H2.30078C2.30078 14.88 2.48178 13.5 6.55078 13.5C10.6198 13.5 10.8008 14.88 10.8008 17.75C10.8008 19.188 10.8008 20.211 10.1968 20.96C9.50178 21.823 8.23678 22 6.55078 22Z" fill="#A4ACB6"/>
<path fill-rule="evenodd" clip-rule="evenodd" d="M17.5508 15C14.8008 15 14.8008 15.208 14.8008 17.75V17.775C14.8008 18.882 14.8008 19.682 15.0718 20.02C15.3368 20.348 16.1238 20.5 17.5508 20.5C18.9778 20.5 19.7648 20.347 20.0298 20.019C20.3008 19.682 20.3008 18.882 20.3008 17.774C20.3008 15.208 20.3008 15 17.5508 15ZM17.5508 22C15.8648 22 14.5998 21.823 13.9048 20.96C13.3008 20.211 13.3008 19.189 13.3008 17.775L14.0508 17.75H13.3008C13.3008 14.88 13.4818 13.5 17.5508 13.5C21.6198 13.5 21.8008 14.88 21.8008 17.75C21.8008 19.188 21.8008 20.211 21.1968 20.96C20.5018 21.823 19.2368 22 17.5508 22Z" fill="#A4ACB6"/>
</svg>
