<svg width="25" height="24" viewBox="0 0 25 24" fill="none" xmlns="http://www.w3.org/2000/svg">
<mask id="mask0_6751_3714" style="mask-type:luminance" maskUnits="userSpaceOnUse" x="1" y="1" width="22" height="22">
<path fill-rule="evenodd" clip-rule="evenodd" d="M1.10156 1.00049H22.5946V22.4943H1.10156V1.00049Z" fill="white"/>
</mask>
<g mask="url(#mask0_6751_3714)">
<path fill-rule="evenodd" clip-rule="evenodd" d="M6.21 19.6755C6.79 19.6755 7.337 19.8955 7.916 20.1285C11.463 21.7685 15.658 21.0225 18.391 18.2905C21.997 14.6825 21.997 8.81349 18.391 5.20749C16.645 3.46149 14.323 2.50049 11.851 2.50049C9.378 2.50049 7.055 3.46249 5.31 5.20849C2.576 7.94049 1.832 12.1355 3.457 15.6485C3.691 16.2275 3.917 16.7915 3.917 17.3775C3.917 17.9625 3.716 18.5515 3.539 19.0715C3.393 19.4995 3.172 20.1455 3.314 20.2875C3.453 20.4315 4.103 20.2045 4.532 20.0575C5.047 19.8815 5.631 19.6795 6.21 19.6755ZM11.826 22.4945C10.298 22.4945 8.76 22.1715 7.321 21.5055C6.897 21.3355 6.5 21.1755 6.215 21.1755C5.887 21.1775 5.446 21.3295 5.02 21.4765C4.146 21.7765 3.058 22.1505 2.253 21.3485C1.451 20.5455 1.821 19.4605 2.119 18.5875C2.266 18.1575 2.417 17.7135 2.417 17.3775C2.417 17.1015 2.284 16.7495 2.08 16.2425C0.207 12.1975 1.073 7.32249 4.25 4.14749C6.278 2.11849 8.977 1.00049 11.85 1.00049C14.723 1.00049 17.423 2.11749 19.451 4.14649C23.643 8.33849 23.643 15.1585 19.451 19.3505C17.396 21.4065 14.629 22.4945 11.826 22.4945Z" fill="#A4ACB6"/>
</g>
<path fill-rule="evenodd" clip-rule="evenodd" d="M15.797 13.1631C15.245 13.1631 14.793 12.7161 14.793 12.1631C14.793 11.6101 15.236 11.1631 15.788 11.1631H15.797C16.349 11.1631 16.797 11.6101 16.797 12.1631C16.797 12.7161 16.349 13.1631 15.797 13.1631Z" fill="#A4ACB6"/>
<path fill-rule="evenodd" clip-rule="evenodd" d="M11.7892 13.1631C11.2372 13.1631 10.7852 12.7161 10.7852 12.1631C10.7852 11.6101 11.2272 11.1631 11.7802 11.1631H11.7892C12.3412 11.1631 12.7892 11.6101 12.7892 12.1631C12.7892 12.7161 12.3412 13.1631 11.7892 13.1631Z" fill="#A4ACB6"/>
<path fill-rule="evenodd" clip-rule="evenodd" d="M7.77939 13.1631C7.22739 13.1631 6.77539 12.7161 6.77539 12.1631C6.77539 11.6101 7.21839 11.1631 7.77039 11.1631H7.77939C8.33139 11.1631 8.77939 11.6101 8.77939 12.1631C8.77939 12.7161 8.33139 13.1631 7.77939 13.1631Z" fill="#A4ACB6"/>
</svg>
