<svg width="25" height="24" viewBox="0 0 25 24" fill="none" xmlns="http://www.w3.org/2000/svg">
<mask id="mask0_6813_662" style="mask-type:luminance" maskUnits="userSpaceOnUse" x="2" y="14" width="17" height="8">
<path fill-rule="evenodd" clip-rule="evenodd" d="M2.5 14.4561H18.254V21.795H2.5V14.4561Z" fill="white"/>
</mask>
<g mask="url(#mask0_6813_662)">
<path fill-rule="evenodd" clip-rule="evenodd" d="M10.377 15.9561C6.146 15.9561 4 16.6831 4 18.1151C4 19.5611 6.146 20.2951 10.377 20.2951C14.608 20.2951 16.754 19.5681 16.754 18.1371C16.754 16.6891 14.608 15.9561 10.377 15.9561ZM10.377 21.7951C8.429 21.7951 2.5 21.7951 2.5 18.1151C2.5 14.8351 6.995 14.4561 10.377 14.4561C12.325 14.4561 18.254 14.4561 18.254 18.1371C18.254 21.4161 13.759 21.7951 10.377 21.7951Z" fill="#1D293A"/>
</g>
<path fill-rule="evenodd" clip-rule="evenodd" d="M10.3776 3.5C8.27358 3.5 6.56058 5.213 6.56058 7.318C6.55658 8.337 6.94858 9.292 7.66358 10.013C8.37958 10.733 9.33358 11.132 10.3496 11.136L10.3776 11.886V11.136C12.4826 11.136 14.1956 9.423 14.1956 7.318C14.1956 5.213 12.4826 3.5 10.3776 3.5ZM10.3776 12.636H10.3466C8.92758 12.631 7.59758 12.074 6.60058 11.07C5.60258 10.065 5.05558 8.731 5.06058 7.315C5.06058 4.386 7.44558 2 10.3776 2C13.3106 2 15.6956 4.386 15.6956 7.318C15.6956 10.25 13.3106 12.636 10.3776 12.636Z" fill="#1D293A"/>
<path fill-rule="evenodd" clip-rule="evenodd" d="M21.6538 12.6234C21.361 12.9161 20.8858 12.9161 20.5931 12.6234L17.7569 9.78717C17.4642 9.49442 17.4642 9.01925 17.7569 8.72651C18.0496 8.43376 18.5248 8.43376 18.8176 8.72651L21.6538 11.5627C21.9465 11.8555 21.9465 12.3306 21.6538 12.6234Z" fill="#1D293A"/>
<path fill-rule="evenodd" clip-rule="evenodd" d="M21.6823 9.75838L18.7902 12.6504C18.4975 12.9432 18.0223 12.9432 17.7295 12.6504C17.4368 12.3577 17.4368 11.8825 17.7295 11.5898L20.6216 8.69772C20.9144 8.40498 21.3895 8.40498 21.6823 8.69772C21.975 8.99046 21.975 9.46564 21.6823 9.75838Z" fill="#1D293A"/>
</svg>
