<svg width="25" height="25" viewBox="0 0 25 25" fill="none" xmlns="http://www.w3.org/2000/svg">
<path fill-rule="evenodd" clip-rule="evenodd" d="M16.6165 17.4736H9.39648C8.98248 17.4736 8.64648 17.1376 8.64648 16.7236C8.64648 16.3096 8.98248 15.9736 9.39648 15.9736H16.6165C17.0305 15.9736 17.3665 16.3096 17.3665 16.7236C17.3665 17.1376 17.0305 17.4736 16.6165 17.4736Z" fill="#A4ACB6"/>
<path fill-rule="evenodd" clip-rule="evenodd" d="M16.6165 13.2871H9.39648C8.98248 13.2871 8.64648 12.9511 8.64648 12.5371C8.64648 12.1231 8.98248 11.7871 9.39648 11.7871H16.6165C17.0305 11.7871 17.3665 12.1231 17.3665 12.5371C17.3665 12.9511 17.0305 13.2871 16.6165 13.2871Z" fill="#A4ACB6"/>
<path fill-rule="evenodd" clip-rule="evenodd" d="M12.1515 9.11035H9.39648C8.98248 9.11035 8.64648 8.77435 8.64648 8.36035C8.64648 7.94635 8.98248 7.61035 9.39648 7.61035H12.1515C12.5655 7.61035 12.9015 7.94635 12.9015 8.36035C12.9015 8.77435 12.5655 9.11035 12.1515 9.11035Z" fill="#A4ACB6"/>
<mask id="mask0_6751_1126" style="mask-type:luminance" maskUnits="userSpaceOnUse" x="3" y="2" width="20" height="21">
<path fill-rule="evenodd" clip-rule="evenodd" d="M3.90039 2.5H22.0651V22.4098H3.90039V2.5Z" fill="white"/>
</mask>
<g mask="url(#mask0_6751_1126)">
<path fill-rule="evenodd" clip-rule="evenodd" d="M16.8094 4L9.12039 4.004C6.79239 4.018 5.40039 5.458 5.40039 7.857V17.053C5.40039 19.468 6.80539 20.91 9.15639 20.91L16.8454 20.907C19.1734 20.893 20.5654 19.451 20.5654 17.053V7.857C20.5654 5.442 19.1614 4 16.8094 4ZM9.15739 22.41C6.01339 22.41 3.90039 20.257 3.90039 17.053V7.857C3.90039 4.624 5.94739 2.523 9.11539 2.504L16.8084 2.5H16.8094C19.9534 2.5 22.0654 4.653 22.0654 7.857V17.053C22.0654 20.285 20.0184 22.387 16.8504 22.407L9.15739 22.41Z" fill="#A4ACB6"/>
</g>
</svg>
