<svg width="25" height="25" viewBox="0 0 25 25" fill="none" xmlns="http://www.w3.org/2000/svg">
<path fill-rule="evenodd" clip-rule="evenodd" d="M2.10156 12.515C2.10156 7.24712 6.31156 2.5 12.1216 2.5C17.8016 2.5 22.1016 7.15699 22.1016 12.485C22.1016 18.6642 17.0616 22.5 12.1016 22.5C10.4616 22.5 8.64156 22.0593 7.18156 21.198C6.67156 20.8876 6.24156 20.6572 5.69156 20.8375L3.67156 21.4384C3.16156 21.5986 2.70156 21.198 2.85156 20.6572L3.52156 18.4139C3.63156 18.1034 3.61156 17.7729 3.45156 17.5125C2.59156 15.9301 2.10156 14.1975 2.10156 12.515ZM10.8016 12.515C10.8016 13.2261 11.3716 13.7969 12.0816 13.807C12.7916 13.807 13.3616 13.2261 13.3616 12.525C13.3616 11.814 12.7916 11.2431 12.0816 11.2431C11.3816 11.2331 10.8016 11.814 10.8016 12.515ZM15.4116 12.525C15.4116 13.2261 15.9816 13.807 16.6916 13.807C17.4016 13.807 17.9716 13.2261 17.9716 12.525C17.9716 11.814 17.4016 11.2431 16.6916 11.2431C15.9816 11.2431 15.4116 11.814 15.4116 12.525ZM7.47156 13.807C6.77156 13.807 6.19156 13.2261 6.19156 12.525C6.19156 11.814 6.76156 11.2431 7.47156 11.2431C8.18156 11.2431 8.75156 11.814 8.75156 12.525C8.75156 13.2261 8.18156 13.7969 7.47156 13.807Z" fill="#1D293A"/>
</svg>
