<svg width="25" height="24" viewBox="0 0 25 24" fill="none" xmlns="http://www.w3.org/2000/svg">
<path fill-rule="evenodd" clip-rule="evenodd" d="M4.84078 2H8.22078C9.63078 2 10.7608 3.15 10.7608 4.561V7.97C10.7608 9.39 9.63078 10.53 8.22078 10.53H4.84078C3.44078 10.53 2.30078 9.39 2.30078 7.97V4.561C2.30078 3.15 3.44078 2 4.84078 2ZM4.84078 13.4697H8.22078C9.63078 13.4697 10.7608 14.6107 10.7608 16.0307V19.4397C10.7608 20.8497 9.63078 21.9997 8.22078 21.9997H4.84078C3.44078 21.9997 2.30078 20.8497 2.30078 19.4397V16.0307C2.30078 14.6107 3.44078 13.4697 4.84078 13.4697ZM19.7609 2H16.3809C14.9709 2 13.8409 3.15 13.8409 4.561V7.97C13.8409 9.39 14.9709 10.53 16.3809 10.53H19.7609C21.1609 10.53 22.3009 9.39 22.3009 7.97V4.561C22.3009 3.15 21.1609 2 19.7609 2ZM16.3809 13.4697H19.7609C21.1609 13.4697 22.3009 14.6107 22.3009 16.0307V19.4397C22.3009 20.8497 21.1609 21.9997 19.7609 21.9997H16.3809C14.9709 21.9997 13.8409 20.8497 13.8409 19.4397V16.0307C13.8409 14.6107 14.9709 13.4697 16.3809 13.4697Z" fill="#1D293A"/>
</svg>
