<svg width="25" height="25" viewBox="0 0 25 25" fill="none" xmlns="http://www.w3.org/2000/svg">
<path fill-rule="evenodd" clip-rule="evenodd" d="M8.71234 2.5H17.0933C20.1823 2.5 21.9023 4.28 21.9023 7.33V17.66C21.9023 20.76 20.1823 22.5 17.0933 22.5H8.71234C5.67234 22.5 3.90234 20.76 3.90234 17.66V7.33C3.90234 4.28 5.67234 2.5 8.71234 2.5ZM8.98234 7.16V7.15H11.9713C12.4023 7.15 12.7523 7.5 12.7523 7.929C12.7523 8.37 12.4023 8.72 11.9713 8.72H8.98234C8.55134 8.72 8.20234 8.37 8.20234 7.94C8.20234 7.51 8.55134 7.16 8.98234 7.16ZM8.98234 13.24H16.8223C17.2523 13.24 17.6023 12.89 17.6023 12.46C17.6023 12.03 17.2523 11.679 16.8223 11.679H8.98234C8.55134 11.679 8.20234 12.03 8.20234 12.46C8.20234 12.89 8.55134 13.24 8.98234 13.24ZM8.98234 17.81H16.8223C17.2213 17.77 17.5223 17.429 17.5223 17.03C17.5223 16.62 17.2213 16.28 16.8223 16.24H8.98234C8.68234 16.21 8.39234 16.35 8.23234 16.61C8.07234 16.86 8.07234 17.19 8.23234 17.45C8.39234 17.7 8.68234 17.85 8.98234 17.81Z" fill="#1D293A"/>
</svg>
