<svg width="161" height="160" viewBox="0 0 161 160" fill="none" xmlns="http://www.w3.org/2000/svg">
<rect x="0.5" width="160" height="160" rx="16" fill="white"/>
<path d="M121.119 53.4085H53.9242L51.5378 41.0179C51.0895 38.6898 49.0261 37 46.6316 37H34.626C33.728 37 33 37.7205 33 38.6095C33 39.4984 33.728 40.2189 34.626 40.2189H46.6316C47.4669 40.2189 48.1868 40.8084 48.3432 41.6207L58.6629 95.2027L56.3878 99.351C55.1056 101.689 55.1605 104.449 56.5347 106.735C57.9088 109.021 60.3336 110.386 63.021 110.386H65.7838C63.1601 111.429 61.3066 113.969 61.3066 116.939C61.3066 120.839 64.5005 124 68.4404 124C72.3803 124 75.5742 120.839 75.5742 116.939C75.5742 113.969 73.7207 111.429 71.097 110.386H105.112C102.488 111.429 100.635 113.969 100.635 116.939C100.635 120.839 103.829 124 107.769 124C111.708 124 114.902 120.839 114.902 116.939C114.902 113.969 113.049 111.429 110.425 110.386H116.85C117.748 110.386 118.476 109.665 118.476 108.776C118.476 107.888 117.748 107.167 116.85 107.167H63.0211C61.4917 107.167 60.1117 106.39 59.3296 105.089C58.5475 103.788 58.5163 102.217 59.246 100.887L61.3367 97.0748H112.84C115.932 97.0748 118.66 95.0123 119.474 92.0593L127.754 62.0059C128.322 59.9421 127.896 57.7834 126.584 56.0834C125.272 54.3835 123.28 53.4085 121.119 53.4085ZM104.251 80.6681H91.1364V70.1956H106.119L104.251 80.6681ZM109.491 70.1956H122.126L119.241 80.6681H107.624L109.491 70.1956ZM61.7143 93.8559L59.7943 83.8871H71.9019L73.6794 93.8559H61.7143ZM87.8152 70.1956V80.6681H74.7004L72.833 70.1956H87.8152ZM72.259 66.9767L70.4136 56.6275H87.8151V66.9767H72.259ZM71.3279 80.6681H59.1744L57.1574 70.1956H69.4606L71.3279 80.6681ZM75.2743 83.887H87.8152V93.8558H77.0518L75.2743 83.887ZM91.1364 83.887H103.677L101.9 93.8558H91.1364V83.887ZM91.1364 66.9767V56.6275H108.538L106.693 66.9767H91.1364ZM67.0413 56.6275L68.8867 66.9767H56.5374L54.5442 56.6275H67.0413ZM116.336 91.2124C115.907 92.7689 114.47 93.8559 112.84 93.8559H105.272L107.049 83.8871H118.354L116.336 91.2124ZM124.616 61.1591L123.013 66.9766H110.065L111.91 56.6274H121.119C122.258 56.6274 123.308 57.1413 123.999 58.0373C124.691 58.9336 124.916 60.0714 124.616 61.1591Z" fill="black"/>
<circle cx="108" cy="117" r="4" fill="white"/>
<ellipse cx="68.25" cy="117.1" rx="4.25" ry="4.1" fill="white"/>
</svg>
