<svg width="25" height="24" viewBox="0 0 25 24" fill="none" xmlns="http://www.w3.org/2000/svg">
<path fill-rule="evenodd" clip-rule="evenodd" d="M11.819 22H6.933C4.489 22 2.5 20.011 2.5 17.565V6.436C2.5 3.99 4.489 2 6.933 2H11.808C14.254 2 16.244 3.99 16.244 6.436V7.368C16.244 7.782 15.908 8.118 15.494 8.118C15.08 8.118 14.744 7.782 14.744 7.368V6.436C14.744 4.816 13.427 3.5 11.808 3.5H6.933C5.316 3.5 4 4.816 4 6.436V17.565C4 19.184 5.316 20.5 6.933 20.5H11.819C13.431 20.5 14.744 19.188 14.744 17.576V16.633C14.744 16.219 15.08 15.883 15.494 15.883C15.908 15.883 16.244 16.219 16.244 16.633V17.576C16.244 20.016 14.258 22 11.819 22Z" fill="#1D293A"/>
<mask id="mask0_6813_651" style="mask-type:luminance" maskUnits="userSpaceOnUse" x="9" y="11" width="15" height="2">
<path fill-rule="evenodd" clip-rule="evenodd" d="M9.49609 11.25H23.037V12.75H9.49609V11.25Z" fill="white"/>
</mask>
<g mask="url(#mask0_6813_651)">
<path fill-rule="evenodd" clip-rule="evenodd" d="M22.2871 12.75H10.2461C9.83209 12.75 9.49609 12.414 9.49609 12C9.49609 11.586 9.83209 11.25 10.2461 11.25H22.2871C22.7011 11.25 23.0371 11.586 23.0371 12C23.0371 12.414 22.7011 12.75 22.2871 12.75Z" fill="#1D293A"/>
</g>
<mask id="mask1_6813_651" style="mask-type:luminance" maskUnits="userSpaceOnUse" x="18" y="8" width="6" height="8">
<path fill-rule="evenodd" clip-rule="evenodd" d="M18.6094 8.33496H23.0367V15.6657H18.6094V8.33496Z" fill="white"/>
</mask>
<g mask="url(#mask1_6813_651)">
<path fill-rule="evenodd" clip-rule="evenodd" d="M19.3591 15.6657C19.1671 15.6657 18.9741 15.5927 18.8281 15.4447C18.5361 15.1507 18.5371 14.6767 18.8301 14.3847L21.2241 11.9997L18.8301 9.61571C18.5371 9.32371 18.5351 8.84971 18.8281 8.55571C19.1201 8.26171 19.5941 8.26171 19.8881 8.55371L22.8161 11.4687C22.9581 11.6087 23.0371 11.8007 23.0371 11.9997C23.0371 12.1987 22.9581 12.3907 22.8161 12.5307L19.8881 15.4467C19.7421 15.5927 19.5501 15.6657 19.3591 15.6657Z" fill="#1D293A"/>
</g>
</svg>
