<svg width="25" height="24" viewBox="0 0 25 24" fill="none" xmlns="http://www.w3.org/2000/svg">
<path fill-rule="evenodd" clip-rule="evenodd" d="M13.2242 3.46436C17.5386 3.46436 21.0352 6.96095 21.0352 11.2753C21.0352 15.5897 17.5386 19.0863 13.2242 19.0863C8.91074 19.0863 5.41325 15.5896 5.41325 11.2753C5.41325 6.961 8.91074 3.46436 13.2242 3.46436ZM22.5352 11.2753C22.5352 6.13252 18.367 1.96436 13.2242 1.96436C8.08243 1.96436 3.91325 6.13247 3.91325 11.2753C3.91325 16.4181 8.08243 20.5863 13.2242 20.5863C18.367 20.5863 22.5352 16.4181 22.5352 11.2753Z" fill="#A4ACB6"/>
<path fill-rule="evenodd" clip-rule="evenodd" d="M4.60029 19.2378C4.96545 19.2378 5.26172 19.5347 5.26172 19.8983C5.26172 20.2637 4.96545 20.5597 4.60029 20.5597C4.23579 20.5597 3.93981 20.2644 3.93981 19.8983C3.93981 19.5341 4.23579 19.2378 4.60029 19.2378ZM6.76172 19.8983C6.76172 18.7056 5.79322 17.7378 4.60029 17.7378C3.4067 17.7378 2.43981 18.7063 2.43981 19.8983C2.43981 21.0922 3.4067 22.0597 4.60029 22.0597C5.79322 22.0597 6.76172 21.0928 6.76172 19.8983Z" fill="#A4ACB6"/>
<path d="M12.1449 14.0071V13.8778C12.1482 13.2779 12.2045 12.8007 12.3139 12.446C12.4266 12.0914 12.5857 11.8063 12.7912 11.5909C12.9967 11.3722 13.2469 11.1716 13.5419 10.9893C13.7441 10.8634 13.9247 10.7259 14.0838 10.5767C14.2462 10.4242 14.3738 10.2552 14.4666 10.0696C14.5594 9.88068 14.6058 9.67022 14.6058 9.43821C14.6058 9.17637 14.5445 8.94934 14.4219 8.7571C14.2992 8.56487 14.1335 8.41572 13.9247 8.30966C13.7192 8.2036 13.4889 8.15057 13.2337 8.15057C12.9983 8.15057 12.7746 8.20194 12.5625 8.30469C12.3537 8.40412 12.1797 8.55658 12.0405 8.76207C11.9046 8.96425 11.8284 9.22112 11.8118 9.53267H10.0419C10.0585 8.90294 10.2109 8.37595 10.4993 7.9517C10.791 7.52746 11.1754 7.20928 11.6527 6.99716C12.1333 6.78504 12.6636 6.67898 13.2436 6.67898C13.8767 6.67898 14.4335 6.79001 14.9141 7.01207C15.398 7.23414 15.7741 7.55066 16.0426 7.96165C16.3144 8.36932 16.4503 8.85322 16.4503 9.41335C16.4503 9.79119 16.389 10.1293 16.2663 10.4276C16.147 10.7259 15.9763 10.991 15.7543 11.223C15.5322 11.455 15.2687 11.6622 14.9638 11.8445C14.6953 12.0102 14.4749 12.1825 14.3026 12.3615C14.1335 12.5405 14.0076 12.7509 13.9247 12.9929C13.8452 13.2315 13.8037 13.5265 13.8004 13.8778V14.0071H12.1449ZM13.0099 17.1094C12.7116 17.1094 12.4548 17.0033 12.2393 16.7912C12.0239 16.5791 11.9162 16.3205 11.9162 16.0156C11.9162 15.7173 12.0239 15.4621 12.2393 15.25C12.4548 15.0379 12.7116 14.9318 13.0099 14.9318C13.3049 14.9318 13.5601 15.0379 13.7756 15.25C13.9943 15.4621 14.1037 15.7173 14.1037 16.0156C14.1037 16.2178 14.0523 16.4018 13.9496 16.5675C13.8501 16.7332 13.7176 16.8658 13.5518 16.9652C13.3894 17.0613 13.2088 17.1094 13.0099 17.1094Z" fill="#A4ACB6"/>
</svg>
